<?xml version="1.0" encoding="utf-8"?>
<!-- Generator: Adobe Illustrator 19.2.1, SVG Export Plug-In . SVG Version: 6.00 Build 0)  -->
<svg version="1.1" id="Layer_1" xmlns="http://www.w3.org/2000/svg" xmlns:xlink="http://www.w3.org/1999/xlink" x="0px" y="0px"
	 viewBox="0 0 333 137" style="enable-background:new 0 0 333 137;" xml:space="preserve">
<g>
	<path d="M205.2,46v-2.8c0-2.4-1.4-3.8-4.4-3.8c-3.1,0-6.3,1.3-10.3,3.2l-3.1-6.5c4.3-2.2,9.4-3.7,13.7-3.7
		c9.2,0,12.8,4.5,12.8,11.1V57c0,1.7,1,2.5,2.6,2.5v6.1c-6.1,0-8.6-0.9-10.4-4c-2.7,2.9-5.7,4.5-10,4.5c-5.6,0-9.6-3.4-9.6-8.5
		C186.6,50.5,193.3,46.9,205.2,46z M199.1,59.8c2.7,0,4.7-1.1,6.1-2.7v-6.2c-5,0.3-9.8,1.6-9.8,5.6
		C195.4,58.5,196.9,59.8,199.1,59.8z"/>
	<path d="M222.1,33.1h8.3l0.4,3.7c2.3-2.5,5.8-4.5,9.8-4.5c7.2,0,10.3,4.4,10.3,11.7v21.3H242V43.8c0-2.9-1.2-4.9-4.2-4.9
		c-2.7,0-5,1.4-7,3.8v22.6h-8.8V33.1z"/>
	<g>
		<path d="M171.5,23.3v28c0,4.3-2.1,6.8-5.8,6.8c-2.5,0-4.4-1.2-5.9-3.2l-6,5.5c3.1,3.7,7.3,5.8,12.4,5.8c8.8,0,14.3-5,14.3-14.6
			V23.3H171.5z"/>
	</g>
	<path d="M170.5,92.6c-4.6-1.2-8.6-2.2-8.6-5.6c0-2.9,2.7-4.8,6.8-4.8c3.8,0,7.7,0.9,11.4,2.7l3.2-6.7c-5-2.3-9.9-3.4-14.9-3.4
		c-9,0-15.3,5.1-15.3,12.4c0,9.2,7.6,11.2,14.2,12.9c4.7,1.2,8.7,2.3,8.7,5.8c0,3.1-2.7,4.9-7.2,4.9c-3.9,0-8.3-1.3-12.4-3.7
		l-4.1,6.7c4.5,2.7,11,4.5,16.6,4.5c10,0,16.1-4.8,16.1-12.5C184.9,96.3,176.9,94.2,170.5,92.6z"/>
	<path d="M192,91.5h-5.1v-6.2h5.1v-8h8.8v8h7.2v6.2h-7.2v16c0,2.4,0.9,3.6,2.9,3.6c1.6,0,3.1-0.5,4.4-1.4l3.2,5.3
		c-2.5,1.9-5.9,3.2-9.4,3.2c-6.7,0-10-3.3-10-10.5V91.5z"/>
	<path d="M215.4,85.3h8.1l0.6,5c2.5-4.3,5.5-5.9,9.2-5.9c1.5,0,2.9,0.2,4,0.7l-1.3,8c-1.1-0.4-2.5-0.7-4.3-0.7c-3.3,0-5.5,2-7.5,5.8
		v19.4h-8.8V85.3z"/>
	<path d="M309.5,91.5h-5.1v-6.2h5.1v-8h8.8v8h7.2v6.2h-7.2v16c0,2.4,0.9,3.6,2.9,3.6c1.6,0,3.1-0.5,4.4-1.4l3.2,5.3
		c-2.5,1.9-5.9,3.2-9.4,3.2c-6.7,0-10-3.3-10-10.5V91.5z"/>
	<path d="M272.2,32.3c-8.9,0-16.1,6.4-16.1,16.7c0,10.8,6.7,17.1,16.2,17.1c4.8,0,9.3-1.4,13.3-4.2l-3.7-5.6
		c-2.7,1.7-5.7,2.8-8.9,2.8c-4.5,0-7-2.3-7.8-6.9H286c0.2-1.4,0.6-2.8,0.6-5.2C286.6,38.3,281.5,32.3,272.2,32.3z M272.5,38.6
		c4.2,0,5.8,3.1,5.8,7.2h-13C266,41.2,268.9,38.6,272.5,38.6z"/>
	<path d="M287.6,84.4c-8.9,0-16.1,6.4-16.1,16.7c0,10.8,6.7,17.1,16.2,17.1c4.8,0,9.3-1.4,13.3-4.2l-3.7-5.6
		c-2.7,1.7-5.7,2.8-8.9,2.8c-4.5,0-7-2.3-7.8-6.9h20.8c0.2-1.4,0.6-2.8,0.6-5.2C301.9,90.5,296.8,84.4,287.6,84.4z M287.8,90.8
		c4.2,0,5.8,3.1,5.8,7.2h-13C281.4,93.3,284.2,90.8,287.8,90.8z"/>
	<path d="M253.9,84.4c-8.9,0-16.1,6.4-16.1,16.7c0,10.8,6.7,17.1,16.2,17.1c4.8,0,9.3-1.4,13.3-4.2l-3.7-5.6
		c-2.7,1.7-5.7,2.8-8.9,2.8c-4.5,0-7-2.3-7.8-6.9h20.8c0.2-1.4,0.6-2.8,0.6-5.2C268.2,90.5,263.1,84.4,253.9,84.4z M254.1,90.8
		c4.2,0,5.8,3.1,5.8,7.2h-13C247.7,93.3,250.5,90.8,254.1,90.8z"/>
</g>
<g>
	<path d="M25.3,95c8.6,14.7,24.7,24.6,42.9,24.6c27.4-0.1,49.5-22.4,49.5-49.7C117.7,42.5,95.3,20.3,68,20.4
		c-27.4,0.1-49.5,22.4-49.5,49.7c0,3.3,0.4,6.6,1,9.7c0.1,0.4,0.5,0.6,0.9,0.5l6.9-1.7c0.4-0.1,0.7-0.5,0.6-0.9h0
		c-0.5-2.5-0.7-5-0.7-7.6C27.1,47.5,45.4,29.1,68,29c22.6-0.1,41,18.3,41.1,40.9c0.1,22.6-18.3,41-40.9,41.1c-15,0-28.1-8-35.3-20
		l0,0c-0.2-0.4-0.6-0.5-1-0.3L25.6,94C25.3,94.2,25.1,94.6,25.3,95z"/>
	<path d="M94.2,80.7l6.3,3.4c0.4,0.2,0.9,0.1,1-0.3c1.7-4.2,2.7-8.7,2.7-13.5c0.2-20-15.9-36.3-35.9-36.5l-0.3,0
		c-19.8,0-36,16.1-36.2,35.9c-0.2,20,15.9,36.3,35.9,36.5l0.3,0c9.4,0,18.1-3.7,24.5-9.7c0.3-0.3,0.4-0.8,0.1-1.1l-5.4-4.8
		c-0.3-0.3-0.8-0.2-1.1,0l0,0c-4.9,4.3-11.2,6.9-18.2,6.9l-0.2,0c-15.2-0.1-27.4-12.6-27.3-27.8c0.1-15.1,12.5-27.3,27.5-27.3l0.2,0
		C83.5,42.6,95.8,55,95.7,70.2c0,3.3-0.7,6.5-1.8,9.4h0C93.7,80.1,93.9,80.5,94.2,80.7z"/>
	<path d="M104.6,18.6c-0.3-0.2-0.8-0.2-1,0.2l-4,5.8c-0.2,0.3-0.2,0.8,0.1,1.1l0,0c13.9,9.9,22.9,26.1,22.9,44.3
		c0,30-24.4,54.4-54.4,54.4c-30,0-54.4-24.4-54.4-54.4c0-30,24.4-54.4,54.4-54.4c6.5,0,12.8,1.2,18.6,3.3v0c0.4,0.1,0.8,0,1-0.4
		l2.5-6.7c0.1-0.4,0-0.8-0.4-1C83.1,8.3,75.8,7,68.1,7c-34.8,0-63,28.3-63,63c0,34.8,28.3,63,63,63c34.8,0,63-28.3,63-63
		C131.2,48.8,120.6,30,104.6,18.6z"/>
</g>
</svg>
